<?xml version="1.0" encoding="UTF-8" standalone="no"?>
<!-- Created with Inkscape (http://www.inkscape.org/) -->

<svg
   xmlns:dc="http://purl.org/dc/elements/1.1/"
   xmlns:cc="http://creativecommons.org/ns#"
   xmlns:rdf="http://www.w3.org/1999/02/22-rdf-syntax-ns#"
   xmlns:svg="http://www.w3.org/2000/svg"
   xmlns="http://www.w3.org/2000/svg"
   xmlns:sodipodi="http://sodipodi.sourceforge.net/DTD/sodipodi-0.dtd"
   xmlns:inkscape="http://www.inkscape.org/namespaces/inkscape"
   inkscape:version="0.91 r13725"
   version="1.1"
   id="svg2"
   viewBox="0 0 575.6588 236.37427"
   height="236.37431"
   width="575.65881"
   sodipodi:docname="logo.svg">
  <defs
     id="defs4" />
  <sodipodi:namedview
     inkscape:window-maximized="1"
     inkscape:window-y="1"
     inkscape:window-x="0"
     inkscape:window-height="855"
     inkscape:window-width="1389"
     units="px"
     fit-margin-bottom="3"
     fit-margin-right="3"
     fit-margin-top="3"
     fit-margin-left="3"
     showgrid="false"
     inkscape:current-layer="layer1"
     inkscape:document-units="px"
     inkscape:cy="160.36972"
     inkscape:cx="449.25561"
     inkscape:zoom="0.7"
     inkscape:pageshadow="2"
     inkscape:pageopacity="0.0"
     borderopacity="1.0"
     bordercolor="#666666"
     pagecolor="#ffffff"
     id="base" />
  <metadata
     id="metadata7">
    <rdf:RDF>
      <cc:Work
         rdf:about="">
        <dc:format>image/svg+xml</dc:format>
        <dc:type
           rdf:resource="http://purl.org/dc/dcmitype/StillImage" />
        <dc:title></dc:title>
      </cc:Work>
    </rdf:RDF>
  </metadata>
  <g
     inkscape:label="レイヤー 1"
     inkscape:groupmode="layer"
     id="layer1"
     transform="translate(-330.19043,-374.43273)">
    <g
       transform="translate(0,316.26772)"
       style="font-style:normal;font-variant:normal;font-weight:500;font-stretch:normal;font-size:90px;line-height:125%;font-family:Futura;-inkscape-font-specification:'Futura, Medium';text-align:start;letter-spacing:-3.89999962px;word-spacing:0px;writing-mode:lr-tb;text-anchor:start;fill:#000000;fill-opacity:1;stroke:none;stroke-width:1px;stroke-linecap:butt;stroke-linejoin:miter;stroke-opacity:1"
       id="flowRoot4136">
      <g
         transform="translate(0,-8)"
         style="font-style:normal;font-weight:normal;font-size:90px;line-height:125%;font-family:sans-serif;letter-spacing:0px;word-spacing:0px;fill:#4d4d4d;fill-opacity:1;stroke:none;stroke-width:1px;stroke-linecap:butt;stroke-linejoin:miter;stroke-opacity:1"
         id="flowRoot5313">
        <path
           d="m 430.23021,102.68068 -16.22256,-28.228529 8.62628,0 11.36223,19.859728 11.39441,-19.859728 8.62629,0 -16.28694,28.228529 0,21.46912 -7.49971,0 0,-21.46912 z"
           style="font-style:normal;font-variant:normal;font-weight:500;font-stretch:normal;font-size:90px;line-height:125%;font-family:Futura;-inkscape-font-specification:'Futura, Medium';text-align:start;letter-spacing:-7px;writing-mode:lr-tb;text-anchor:start;fill:#0066ff"
           id="path5322"
           inkscape:connector-curvature="0" />
        <path
           d="m 481.14172,81.855291 -6.08346,3.605 q -1.70595,-2.961245 -3.25096,-3.862491 -1.60936,-1.030009 -4.15221,-1.030009 -3.1222,0 -5.18219,1.770322 -2.06,1.738122 -2.06,4.3775 0,3.6372 5.40751,5.858144 l 4.95688,2.027822 q 6.05129,2.446256 8.85159,5.986901 2.80034,3.50846 2.80034,8.62629 0,6.85595 -4.57067,11.33003 -4.60279,4.50628 -11.42658,4.50628 -6.46971,0 -10.68629,-3.83035 -4.15219,-3.83033 -5.18218,-10.78285 l 7.59625,-1.67375 q 0.51502,4.37751 1.80251,6.05127 2.31751,3.21875 6.75941,3.21875 3.50844,0 5.82594,-2.34967 2.31751,-2.34972 2.31751,-5.95471 0,-1.44846 -0.41843,-2.6394 -0.38627,-1.22312 -1.25531,-2.22095 -0.8369,-1.02998 -2.18878,-1.89905 -1.35188,-0.90125 -3.21876,-1.70594 l -4.79594,-1.995639 q -10.20349,-4.313145 -10.20349,-12.617556 0,-5.600641 4.28097,-9.366601 4.28095,-3.798113 10.65408,-3.798113 8.59412,0 13.42226,8.36877 z"
           style="font-style:normal;font-variant:normal;font-weight:500;font-stretch:normal;font-size:90px;line-height:125%;font-family:Futura;-inkscape-font-specification:'Futura, Medium';text-align:start;letter-spacing:-7px;writing-mode:lr-tb;text-anchor:start;fill:#0066ff"
           id="path5324"
           inkscape:connector-curvature="0" />
        <path
           d="m 511.09906,81.501219 -17.31691,0 0,11.941616 16.70536,0 0,7.049065 -16.70536,0 0,23.6579 -7.49972,0 0,-49.697649 24.81663,0 0,7.049068 z"
           style="font-style:normal;font-variant:normal;font-weight:500;font-stretch:normal;font-size:90px;line-height:125%;font-family:Futura;-inkscape-font-specification:'Futura, Medium';text-align:start;letter-spacing:-7px;writing-mode:lr-tb;text-anchor:start;fill:#0066ff"
           id="path5326"
           inkscape:connector-curvature="0" />
        <path
           d="m 522.13013,93.893457 21.43694,0 0,-19.441306 7.49973,0 0,49.697649 -7.49973,0 0,-23.20725 -21.43694,0 0,23.20725 -7.49973,0 0,-49.697649 7.49973,0 0,19.441306 z"
           style="font-style:normal;font-variant:normal;font-weight:500;font-stretch:normal;font-size:90px;line-height:125%;font-family:Futura;-inkscape-font-specification:'Futura, Medium';text-align:start;letter-spacing:-7px;writing-mode:lr-tb;text-anchor:start;fill:#0066ff"
           id="path5328"
           inkscape:connector-curvature="0" />
        <path
           d="m 333.19043,240.66834 0,-171.50335 25.76993,0 q 17.217,0 27.43609,2.665836 10.3302,2.665862 17.43914,8.997261 7.22002,6.553578 11.44098,16.328386 4.33199,9.885887 4.33199,19.993907 0,18.43883 -14.1068,31.21271 13.6625,4.66526 21.54899,16.32839 7.99756,11.55203 7.99756,26.88068 0,20.105 -14.2179,33.98967 -8.55295,8.55296 -19.21637,11.88528 -11.66312,3.22123 -29.21333,3.22123 l -39.21028,0 z m 25.88102,-97.85909 8.10865,0 q 14.44004,0 21.10466,-6.33141 6.77572,-6.44249 6.77572,-18.88316 0,-12.10743 -6.88678,-18.327735 -6.8868,-6.331429 -19.99393,-6.331429 l -9.10832,0 0,49.873734 z m 0,73.53318 15.99511,0 q 17.55022,0 25.76993,-6.8868 8.66405,-7.44219 8.66405,-18.88317 0,-11.10772 -8.3308,-18.66097 -8.10865,-7.44219 -28.99118,-7.44219 l -13.10711,0 0,51.87313 z"
           style="font-style:normal;font-variant:normal;font-weight:500;font-stretch:normal;font-size:90px;line-height:125%;font-family:Futura;-inkscape-font-specification:'Futura, Medium';text-align:start;letter-spacing:-7px;writing-mode:lr-tb;text-anchor:start;fill:#666666"
           id="path5330"
           inkscape:connector-curvature="0" />
        <path
           d="m 479.00284,220.56335 -48.65186,-88.08432 28.99118,0 33.10103,62.20331 30.87949,-62.20331 28.21364,0 -86.19597,167.06027 -28.54689,0 42.20938,-78.97595 z"
           style="font-style:normal;font-variant:normal;font-weight:500;font-stretch:normal;font-size:90px;line-height:125%;font-family:Futura;-inkscape-font-specification:'Futura, Medium';text-align:start;letter-spacing:-7px;writing-mode:lr-tb;text-anchor:start;fill:#666666"
           id="path5332"
           inkscape:connector-curvature="0" />
        <path
           d="m 582.79666,259.09729 -24.99239,0 0,-167.060274 24.99239,0 0,11.774224 q 14.77328,-14.773304 33.54536,-14.773304 22.32653,0 36.76657,16.439454 14.66223,16.32836 14.66223,41.20968 0,24.32592 -14.55114,40.54322 -14.44005,16.10622 -36.43336,16.10622 -18.99421,0 -33.98966,-15.21761 l 0,70.97839 z m 59.42636,-112.29916 q 0,-15.55081 -8.44187,-25.32562 -8.55295,-9.88587 -21.549,-9.88587 -13.77359,0 -22.32654,9.55266 -8.55296,9.55263 -8.55296,25.10346 0,15.2176 8.55296,25.10348 8.44189,9.66371 22.21545,9.66371 12.99607,0 21.43794,-9.7748 8.66402,-9.77479 8.66402,-24.43702 z"
           style="font-style:normal;font-variant:normal;font-weight:500;font-stretch:normal;font-size:90px;line-height:125%;font-family:Futura;-inkscape-font-specification:'Futura, Medium';text-align:start;letter-spacing:-7px;writing-mode:lr-tb;text-anchor:start;fill:#0066ff"
           id="path5334"
           inkscape:connector-curvature="0" />
        <path
           d="m 721.8907,132.47903 25.10346,0 0,108.18931 -25.10346,0 0,-11.32987 q -15.43974,14.44004 -33.2121,14.44004 -22.43762,0 -37.09983,-16.21731 -14.55111,-16.5505 -14.55111,-41.32073 0,-24.32594 14.55111,-40.54322 14.55114,-16.21729 36.43335,-16.21729 18.88316,0 33.87858,15.55084 l 0,-12.55177 z m -59.31527,53.76144 q 0,15.55081 8.33079,25.32562 8.55294,9.88588 21.54901,9.88588 13.88465,0 22.4376,-9.55265 8.55296,-9.88588 8.55296,-25.10349 0,-15.21759 -8.55296,-25.10346 -8.55295,-9.66372 -22.21545,-9.66372 -12.88497,0 -21.54899,9.77481 -8.55296,9.88587 -8.55296,24.43701 z"
           style="font-style:normal;font-variant:normal;font-weight:500;font-stretch:normal;font-size:90px;line-height:125%;font-family:Futura;-inkscape-font-specification:'Futura, Medium';text-align:start;letter-spacing:-7px;writing-mode:lr-tb;text-anchor:start;fill:#0066ff"
           id="path5336"
           inkscape:connector-curvature="0" />
        <path
           d="m 821.1284,150.91788 -20.66039,10.99665 q -4.88739,-9.99697 -12.10743,-9.99697 -3.44339,0 -5.8871,2.33264 -2.44367,2.22154 -2.44367,5.77601 0,6.22034 14.44004,12.32959 19.88284,8.55295 26.76963,15.77299 6.8868,7.22001 6.8868,19.43852 0,15.6619 -11.55207,26.21424 -11.21878,9.99696 -27.10284,9.99696 -27.21394,0 -38.54384,-26.54748 l 21.32684,-9.88587 q 4.44311,7.77542 6.77573,9.88587 4.55418,4.22094 10.88557,4.22094 12.6628,0 12.6628,-11.55204 0,-6.66464 -9.77477,-12.44067 -3.77663,-1.88832 -7.55326,-3.66554 -3.77663,-1.77724 -7.66435,-3.66556 -10.88557,-5.3317 -15.32866,-10.66342 -5.66494,-6.7757 -5.66494,-17.43913 0,-14.10682 9.66372,-23.32624 9.88588,-9.21941 23.99269,-9.21941 20.77147,0 30.8795,21.43792 z"
           style="font-style:normal;font-variant:normal;font-weight:500;font-stretch:normal;font-size:90px;line-height:125%;font-family:Futura;-inkscape-font-specification:'Futura, Medium';text-align:start;letter-spacing:-7px;writing-mode:lr-tb;text-anchor:start;fill:#666666"
           id="path5338"
           inkscape:connector-curvature="0" />
        <path
           d="m 895.85133,150.91788 -20.66038,10.99665 q -4.88739,-9.99697 -12.10743,-9.99697 -3.44338,0 -5.88709,2.33264 -2.44369,2.22154 -2.44369,5.77601 0,6.22034 14.44004,12.32959 19.88285,8.55295 26.76964,15.77299 6.8868,7.22001 6.8868,19.43852 0,15.6619 -11.55207,26.21424 -11.21879,9.99696 -27.10285,9.99696 -27.21393,0 -38.54383,-26.54748 l 21.32684,-9.88587 q 4.44311,7.77542 6.77573,9.88587 4.55418,4.22094 10.88558,4.22094 12.66279,0 12.66279,-11.55204 0,-6.66464 -9.77478,-12.44067 -3.77663,-1.88832 -7.55326,-3.66554 -3.77662,-1.77724 -7.66433,-3.66556 -10.88558,-5.3317 -15.32867,-10.66342 -5.66493,-6.7757 -5.66493,-17.43913 0,-14.10682 9.6637,-23.32624 9.88588,-9.21941 23.99269,-9.21941 20.77147,0 30.8795,21.43792 z"
           style="font-style:normal;font-variant:normal;font-weight:500;font-stretch:normal;font-size:90px;line-height:125%;font-family:Futura;-inkscape-font-specification:'Futura, Medium';text-align:start;letter-spacing:-7px;writing-mode:lr-tb;text-anchor:start;fill:#666666"
           id="path5340"
           inkscape:connector-curvature="0" />
      </g>
    </g>
  </g>
</svg>
