<?xml version="1.0" encoding="UTF-8" standalone="no"?>
<!-- Created with Inkscape (http://www.inkscape.org/) -->

<svg
   xmlns:dc="http://purl.org/dc/elements/1.1/"
   xmlns:cc="http://creativecommons.org/ns#"
   xmlns:rdf="http://www.w3.org/1999/02/22-rdf-syntax-ns#"
   xmlns:svg="http://www.w3.org/2000/svg"
   xmlns="http://www.w3.org/2000/svg"
   xmlns:sodipodi="http://sodipodi.sourceforge.net/DTD/sodipodi-0.dtd"
   xmlns:inkscape="http://www.inkscape.org/namespaces/inkscape"
   width="64"
   height="64"
   viewBox="0 0 63.999993 64.000012"
   id="svg4299"
   version="1.1"
   inkscape:version="0.91 r13725"
   sodipodi:docname="favicon.svg"
   inkscape:export-filename="/Users/i-noc/dev/web/YSFHAccess/private/favicon.png"
   inkscape:export-xdpi="90"
   inkscape:export-ydpi="90">
  <defs
     id="defs4301">
    <inkscape:perspective
       sodipodi:type="inkscape:persp3d"
       inkscape:vp_x="0 : 80.065833 : 1"
       inkscape:vp_y="0 : 1000.0001 : 0"
       inkscape:vp_z="802.74735 : 80.065833 : 1"
       inkscape:persp3d-origin="401.37368 : 53.377224 : 1"
       id="perspective5606" />
    <inkscape:perspective
       id="perspective5606-6"
       inkscape:persp3d-origin="401.37369 : 53.377223 : 1"
       inkscape:vp_z="802.74737 : 80.065831 : 1"
       inkscape:vp_y="0 : 999.99999 : 0"
       inkscape:vp_x="0 : 80.065831 : 1"
       sodipodi:type="inkscape:persp3d" />
  </defs>
  <sodipodi:namedview
     id="base"
     pagecolor="#ffffff"
     bordercolor="#666666"
     borderopacity="1.0"
     inkscape:pageopacity="0.0"
     inkscape:pageshadow="2"
     inkscape:zoom="2.8"
     inkscape:cx="20.572049"
     inkscape:cy="1.1294836"
     inkscape:document-units="px"
     inkscape:current-layer="layer1"
     showgrid="false"
     inkscape:snap-bbox="true"
     inkscape:bbox-paths="true"
     inkscape:bbox-nodes="true"
     inkscape:snap-bbox-edge-midpoints="true"
     inkscape:snap-center="true"
     inkscape:snap-object-midpoints="true"
     inkscape:snap-midpoints="true"
     inkscape:object-paths="false"
     inkscape:snap-intersection-paths="true"
     inkscape:object-nodes="true"
     inkscape:snap-smooth-nodes="true"
     fit-margin-top="0"
     fit-margin-left="0"
     fit-margin-right="0"
     fit-margin-bottom="0"
     inkscape:window-width="1389"
     inkscape:window-height="855"
     inkscape:window-x="0"
     inkscape:window-y="4"
     inkscape:window-maximized="0"
     inkscape:snap-page="false"
     showguides="false"
     units="px" />
  <metadata
     id="metadata4304">
    <rdf:RDF>
      <cc:Work
         rdf:about="">
        <dc:format>image/svg+xml</dc:format>
        <dc:type
           rdf:resource="http://purl.org/dc/dcmitype/StillImage" />
        <dc:title></dc:title>
      </cc:Work>
    </rdf:RDF>
  </metadata>
  <g
     inkscape:label="レイヤー 1"
     inkscape:groupmode="layer"
     id="layer1"
     style="display:inline"
     transform="translate(-319.89398,-460.62883)">
    <path
       id="path4460"
       d="m 352.00107,460.62884 c -4.21845,0 -7.66016,1.55923 -10.08903,3.8434 -2.42889,2.28417 -3.90465,5.18001 -4.85792,7.95664 -1.12852,3.28705 -1.53767,6.48658 -1.68997,8.57428 l 5.18381,0 c 0.15306,-1.77946 0.51124,-4.35043 1.38597,-6.89833 0.77343,-2.25275 1.93011,-4.38629 3.51224,-5.87417 1.58215,-1.48788 3.53071,-2.44253 6.5549,-2.44253 3.01998,0 4.96027,0.95831 6.53912,2.45656 1.57886,1.49822 2.73309,3.64939 3.5026,5.92059 1.53901,4.54243 1.48497,9.25412 1.48497,9.25412 l 0,0.0237 0,3.58408 -29.78788,0 c -1.01935,3e-4 -1.84563,0.82657 -1.84592,1.84593 l 0,33.90987 c 2.9e-4,1.01935 0.82657,1.84563 1.84592,1.84592 l 14.93731,0 0,-13.64858 -5.23814,0 c -1.22399,4.1e-4 -1.94848,-1.36997 -1.25894,-2.38121 l 8.61284,-12.62882 c 0.27536,-0.40357 0.72762,-0.65057 1.216,-0.66407 0.51814,-0.0143 1.00797,0.23592 1.30011,0.66407 l 8.61283,12.62882 c 0.68932,1.01092 -0.0345,2.38092 -1.25806,2.38121 l -5.23901,0 0,13.64858 14.9373,0 c 1.01936,-3e-4 1.84563,-0.82657 1.84592,-1.84592 l 0,-33.90987 c -2.9e-4,-1.01935 -0.82656,-1.84563 -1.84592,-1.84593 l -1.67508,0 0,-3.51136 c 0,0 0.13554,-5.41829 -1.75743,-11.00542 -0.94648,-2.79357 -2.41363,-5.70798 -4.83775,-8.00832 -2.42413,-2.30035 -5.86815,-3.8732 -10.09079,-3.8732 z"
       style="color:#000000;font-style:normal;font-variant:normal;font-weight:normal;font-stretch:normal;font-size:medium;line-height:normal;font-family:sans-serif;text-indent:0;text-align:start;text-decoration:none;text-decoration-line:none;text-decoration-style:solid;text-decoration-color:#000000;letter-spacing:normal;word-spacing:normal;text-transform:none;direction:ltr;block-progression:tb;writing-mode:lr-tb;baseline-shift:baseline;text-anchor:start;white-space:normal;clip-rule:nonzero;display:inline;overflow:visible;visibility:visible;opacity:1;isolation:auto;mix-blend-mode:normal;color-interpolation:sRGB;color-interpolation-filters:linearRGB;solid-color:#000000;solid-opacity:1;fill:#26ffdc;fill-opacity:1;fill-rule:evenodd;stroke:none;stroke-width:11.50225449;stroke-linecap:butt;stroke-linejoin:miter;stroke-miterlimit:4;stroke-dasharray:none;stroke-dashoffset:0;stroke-opacity:1;color-rendering:auto;image-rendering:auto;shape-rendering:auto;text-rendering:auto;enable-background:accumulate"
       inkscape:connector-curvature="0" />
  </g>
</svg>
